<?xml version="1.0" encoding="UTF-8" standalone="no"?>
<!-- Created with Inkscape (http://www.inkscape.org/) -->

<svg
   sodipodi:docname="North please!.svg"
   inkscape:version="1.1 (c68e22c387, 2021-05-23)"
   id="svg5"
   version="1.1"
   viewBox="0 0 210 297"
   height="297mm"
   width="210mm"
   xmlns:inkscape="http://www.inkscape.org/namespaces/inkscape"
   xmlns:sodipodi="http://sodipodi.sourceforge.net/DTD/sodipodi-0.dtd"
   xmlns="http://www.w3.org/2000/svg"
   xmlns:svg="http://www.w3.org/2000/svg">
  <sodipodi:namedview
     id="namedview7"
     pagecolor="#ffffff"
     bordercolor="#999999"
     borderopacity="1"
     inkscape:pageshadow="0"
     inkscape:pageopacity="0"
     inkscape:pagecheckerboard="0"
     inkscape:document-units="mm"
     showgrid="false"
     inkscape:zoom="1.2044332"
     inkscape:cx="356.18414"
     inkscape:cy="460.79766"
     inkscape:window-width="1854"
     inkscape:window-height="1056"
     inkscape:window-x="58"
     inkscape:window-y="-8"
     inkscape:window-maximized="1"
     inkscape:current-layer="layer2" />
  <defs
     id="defs2">
    <clipPath
       clipPathUnits="userSpaceOnUse"
       id="clipPath1020">
      <rect
         style="fill:#b10eb5;fill-rule:evenodd;stroke-width:0.16;stroke-linecap:round;stroke-linejoin:round;paint-order:stroke fill markers;stop-color:#000000"
         id="rect1022"
         width="204.29733"
         height="144.10651"
         x="2.6360948"
         y="57.115383" />
    </clipPath>
    <filter
       style="color-interpolation-filters:sRGB"
       id="filter23350"
       inkscape:label="filter0" />
  </defs>
  <g
     inkscape:groupmode="layer"
     id="layer2"
     inkscape:label="Sign"
     style="display:inline">
    <path
       style="color:#000000;fill:#000000;fill-rule:evenodd;stroke-linecap:round;stroke-linejoin:bevel;-inkscape-stroke:none;paint-order:stroke fill markers"
       d="m 26.736,75.5013 c -3.1567,0 -5.8458,0.7218 -7.916,2.792 -2.0702,2.0702 -3.4962,4.9791 -3.4962,8.1358 0,0 -0.0268,4.203 -0.0268,10.1902 0,2.7932 -0.3474,5.8097 -0.3474,9.4407 0,3.026 0.5826,6.436 0.5826,9.855 0,3.13 -0.0975,6.429 -0.0975,9.751 0,3.197 -0.4922,6.426 -0.4922,9.682 0,3.256 0.4773,6.668 0.4773,9.866 0,3.322 -0.0078,6.196 -0.0078,9.326 0,3.419 0.037,6.743 0.037,9.768 0,3.631 -0.4686,7.181 -0.4686,9.974 0,5.987 0.4831,9.751 0.4831,9.751 0,3.157 1.1386,6.014 3.2088,8.084 2.0702,2.071 4.3883,2.804 7.545,2.804 0,0 3.636,0.332 9.6376,0.332 2.7114,0 5.8281,-0.148 9.4449,-0.148 2.9335,0 6.7892,-0.083 10.1998,-0.083 3.0261,0 5.5884,0.423 8.9113,0.423 3.0789,0 6.3793,0.021 9.6518,0.021 3.1146,0 6.1488,-0.138 9.3868,-0.138 3.1424,0 6.6442,0.177 9.8556,0.177 3.1658,0 6.8219,-0.498 10.0099,-0.498 3.188,0 6.301,-0.068 9.467,-0.068 3.212,0 5.941,0.248 9.084,0.248 3.238,0 6.804,0.028 9.919,0.028 3.272,0 5.93,-0.106 9.009,-0.106 3.323,0 6.551,0.296 9.577,0.296 3.41,0 6.839,-0.335 9.773,-0.335 3.616,0 6.865,0.551 9.576,0.551 6.003,0 9.791,-0.224 9.791,-0.224 3.157,0 6.131,-1.002 8.201,-3.073 2.07,-2.07 2.704,-5.62 2.704,-8.777 0,0 0.647,-3.763 0.647,-9.75 0,-2.794 -0.499,-5.613 -0.499,-9.244 0,-3.025 0.118,-6.178 0.118,-9.597 0,-3.129 0.067,-6.631 0.067,-9.952 0,-3.197 -0.406,-6.788 -0.406,-10.044 0,-3.256 0.008,-5.831 0.008,-9.028 0,-3.322 0.133,-7.238 0.133,-10.367 0,-3.419 0.062,-6.101 0.062,-9.127 0,-3.63 -0.244,-7.4954 -0.244,-10.2884 0,-5.987 0.004,-9.1609 0.004,-9.1609 0,-3.1567 -0.725,-5.8956 -2.795,-7.9658 -2.07,-2.0702 -4.717,-3.616 -7.874,-3.616 0,0 -4.215,0.1966 -10.216,0.1966 -2.712,0 -5.34,-0.5862 -8.957,-0.5862 -2.933,0 -6.441,0.407 -9.851,0.407 -3.026,0 -5.844,-0.4721 -9.167,-0.4721 -3.079,0 -6.78,0.6483 -10.053,0.6483 -3.115,0 -6.284,-0.1104 -9.522,-0.1104 -3.142,0 -6.015,0.0076 -9.227,0.0076 -3.166,0 -6.223,-0.3838 -9.411,-0.3838 -3.188,0 -6.379,-0.0749 -9.5449,-0.0749 -3.2115,0 -6.7086,-0.0822 -9.8511,-0.0822 -3.2384,0 -6.4509,0.754 -9.566,0.754 -3.2727,0 -6.6281,0.022 -9.7072,0.022 -3.3227,0 -6.4936,4e-4 -9.5195,4e-4 -3.4104,0 -6.1096,-0.4614 -9.0429,-0.4614 -3.6166,0 -7.2502,0.1271 -9.9615,0.1271 m 0.3338,2.5328 c 2.7114,0 5.7512,-0.037 9.368,-0.037 2.9335,0 5.6805,-0.1123 9.0911,-0.1123 3.0261,0 6.3314,0.5633 9.6543,0.5633 3.0789,0 6.6992,0.0302 9.9717,0.0302 3.1146,0 6.4068,-0.5625 9.6448,-0.5625 3.1424,0 5.9283,0.4948 9.1397,0.4948 3.1658,0 6.5718,-0.2584 9.7597,-0.2584 3.188,0 6.038,-0.288 9.204,-0.288 3.212,0 6.766,0.123 9.909,0.123 3.238,0 6.692,-0.2853 9.807,-0.2853 3.272,0 5.889,0.0574 8.968,0.0574 3.323,0 7.031,0.1323 10.057,0.1323 3.41,0 6.02,-0.1791 8.954,-0.1791 3.616,0 6.723,0.3073 9.434,0.3073 6.003,0 9.687,0.1296 9.687,0.1296 2.441,0 5.038,1.308 6.621,2.8909 1.583,1.583 2.718,3.5212 2.718,5.9627 0,0 -0.438,3.6281 -0.438,9.6153 0,2.7932 -0.157,6.0081 -0.157,9.6391 0,3.026 -0.047,6.035 -0.047,9.454 0,3.13 0.284,6.903 0.284,10.225 0,3.197 -0.261,6.297 -0.261,9.553 0,3.256 0.474,6.473 0.474,9.671 0,3.322 0.079,6.327 0.079,9.457 0,3.419 -0.44,7.086 -0.44,10.111 0,3.631 0.508,7.087 0.508,9.88 0,5.987 -0.156,9.417 -0.156,9.417 0,2.442 -1.21,4.307 -2.793,5.89 -1.583,1.583 -3.479,2.572 -5.92,2.572 0,0 -3.406,0.194 -9.407,0.194 -2.712,0 -6.58,0.332 -10.197,0.332 -2.933,0 -5.569,-0.594 -8.979,-0.594 -3.026,0 -6.459,0.037 -9.782,0.037 -3.079,0 -6.39,0.096 -9.663,0.096 -3.115,0 -5.849,0.37 -9.087,0.37 -3.142,0 -6.42,0.094 -9.632,0.094 -3.166,0 -7,-0.501 -10.188,-0.501 -3.1879,0 -5.6301,0.345 -8.796,0.345 -3.2115,0 -7.0789,0.163 -10.2214,0.163 -3.2384,0 -6.0265,-0.111 -9.1416,-0.111 -3.2727,0 -6.2423,-0.417 -9.3214,-0.417 -3.3227,0 -6.7326,-0.049 -9.7585,-0.049 -3.4104,0 -7.0267,0.091 -9.96,0.091 -3.6166,0 -6.1714,-0.128 -8.8827,-0.128 -6.0024,0 -9.8727,0.646 -9.8727,0.646 -2.4415,0 -5.0383,-1.04 -6.6208,-2.623 -1.5825,-1.583 -2.5443,-4.419 -2.5443,-6.861 0,0 0.6936,-3.121 0.6936,-9.108 0,-2.794 -0.4769,-6.177 -0.4769,-9.808 0,-3.025 0.2192,-6.334 0.2192,-9.753 0,-3.129 -0.3374,-6.594 -0.3374,-9.915 0,-3.197 0.459,-5.933 0.459,-9.189 0,-3.256 -0.1096,-6.942 -0.1096,-10.139 0,-3.322 0.0029,-6.64 0.0029,-9.769 0,-3.419 -0.378,-6.579 -0.378,-9.605 0,-3.63 0.1891,-6.766 0.1891,-9.559 0,-5.987 0.0149,-9.8954 0.0149,-9.8954 0,-2.4415 1.2916,-4.5543 2.8741,-6.1373 1.5825,-1.5829 3.6756,-2.4729 6.1171,-2.4729 1.968292,0.07102 7.738,-0.182526 9.6651,-0.1867 z"
       id="rect23031"
       sodipodi:nodetypes="cscssssssssscccssssssssssssssscccssssssssscscssssssssssssssccsssssssssssssscccssssssssscscssssssssssssssscscssssssssscccc" />
    <path
       id="path5593"
       style="fill:#000000;fill-rule:evenodd;stroke:#000000;stroke-width:0.264583px;stroke-linecap:butt;stroke-linejoin:bevel;stroke-opacity:1"
       d="m 82.707468,107.75037 c -1.686878,-0.85017 -2.739249,17.50215 0.109839,20.75924 1.807009,-4.12638 2.86184,-9.39242 -0.109839,-20.75924 z m -1.523036,40.14974 c -3.786381,-0.44024 -8.234576,-4.28445 -8.501741,-7.16808 -0.248678,-2.68408 -2.636588,-13.93408 -2.627343,-20.97 0.01282,-9.7568 0.936152,-28.76022 5.747334,-31.998678 l 1.165,0.893167 1.825168,-2.485335 c 2.900172,-0.600036 9.965745,5.570702 11.767986,10.101191 2.926488,7.356625 5.953056,15.667575 5.821376,24.109285 -0.108792,6.97442 -1.95029,14.33348 -5.436946,20.37481 -2.371774,4.10957 -6.119679,7.567 -9.760834,7.14364 z m -54.713648,-0.5534 c 1.033644,-19.20322 1.965803,-38.40644 1.372966,-57.609654 4.600537,0.979203 7.796032,0.24113 10.544378,-1.043456 6.798442,3.001066 9.317696,31.54448 13.913262,48.68067 l 2.1779,-0.29735 c 0.513648,-16.5562 0.962369,-33.14023 0.05492,-50.30547 4.349046,0.679169 6.167931,-0.412775 8.567309,-1.098373 l 2.196745,1.97707 c -2.074378,19.459023 2.461218,39.824853 -0.159235,58.850033 -4.978424,1.63431 -10.683991,-0.70703 -14.613878,0.73669 -0.915311,-0.61538 -1.830623,-1.20999 -2.745934,-1.31805 -0.368164,-7.60897 -8.903279,-18.8272 -10.159947,-23.06583 1.013231,9.25103 1.082258,17.55785 0.439349,25.15274 -2.953014,-0.33406 -5.972724,-0.93491 -8.732062,-0.49427 0.08637,0.49618 0.561627,3.30824 -2.855773,-0.16475 z M 153.8577,86.870184 c 3.9511,-1.334155 5.79044,-1.112286 7.84433,-1.048498 -0.14363,8.356259 -1.00753,17.072654 -0.233,24.969834 1.06431,-0.92668 4.7817,-0.44878 7.41717,-0.54366 1.95361,-7.47183 1.0621,-15.392891 1.24267,-23.144676 3.8497,0.135615 6.22047,0.498757 7.37833,1.048502 1.6408,6.133856 -2.24274,17.063584 -2.15199,25.639734 0.0818,7.72843 4.1033,16.50966 0.54919,22.95599 l -5.82138,-0.38443 -1.26313,-1.20821 c 2.05698,-2.97695 0.92254,-7.75775 1.37297,-11.64275 -3.10138,1.04589 -6.18126,2.12618 -9.99519,2.03199 0.41931,4.4814 0.48505,9.62575 1.42788,13.12555 -3.02096,0.88043 -6.39694,0.19877 -9.77551,-0.49426 l -1.04346,-1.26313 c 1.83258,-0.31067 1.07392,-15.58675 1.01519,-23.60835 -0.0487,-6.65264 3.29267,-16.941257 3.26847,-19.722459 -0.0151,-1.730761 -1.23254,-6.711177 -1.23254,-6.711177 z m -26.09601,0.970836 h -1.55333 c -0.76968,-3.139871 3.03692,-0.331036 25.39701,-1.320334 0.80306,4.723197 0.0619,9.069609 0.8155,12.659669 -3.36556,1.037055 -6.73111,0.50784 -10.09667,0.621334 -1.74178,6.628371 0.80828,14.812991 0.73885,19.591431 -0.19483,13.40953 -0.84288,12.86374 -1.04345,19.11169 -3.70577,0.98606 -7.16182,1.47267 -9.94027,0.6041 -1.52977,-13.46547 -1.20144,-22.51537 1.92215,-38.99223 -4.98537,0.0957 -4.45368,-0.553796 -5.18948,-2.214207 -1.40532,-3.171215 -0.84483,-8.613415 -1.05031,-10.061453 z m -21.76872,9.749401 0.54919,10.489459 c 4.94456,-1.31617 9.13251,-4.26764 8.95174,-7.19434 -0.18395,-2.978207 -6.1747,-4.803098 -9.50093,-3.295119 z M 97.288367,86.77145 c 0.341737,0.367086 0.646646,0.83238 0.933617,1.345507 1.412325,-5.486497 15.786876,-2.358846 18.316876,-1.169104 13.65147,6.419639 11.30403,20.791957 -0.73784,28.193007 2.01923,0.90676 6.51813,18.72014 11.8299,25.94512 -3.71095,0.70739 -7.0544,1.59854 -11.86243,1.7574 -0.46295,-0.70905 -1.04289,-1.36798 -1.86723,-1.92215 l 2.14182,-0.43935 c -5.14782,-8.61487 -4.9805,-12.55766 -9.446,-18.34283 -0.91264,3.21245 1.78486,12.73197 0.82378,19.55104 -3.10295,0.30222 -6.22116,1.58888 -8.896822,0.93361 l -0.164756,1.59265 -1.97707,-1.81232 c 2.22765,-16.98725 1.699026,-36.85133 0.906155,-55.63258 z" />
    <path
       id="path21429"
       style="fill:#000000;stroke:#000000;stroke-width:0.264583px;stroke-linecap:butt;stroke-linejoin:miter;stroke-opacity:1"
       d="m 150.58691,157.946 c 0.87359,0.32922 1.96344,3.40366 3.73734,6.39805 2.01989,3.40964 7.47524,3.88792 9.22163,4.22373 3.38082,0.65009 6.72722,1.0733 10.39912,-2.8655 2.96752,-3.18322 2.50993,-7.38744 5.22706,-8.5526 l 0.16475,2.27913 c -1.39933,1.67878 -2.78719,4.3813 -4.9108,7.22701 -1.92554,2.58028 -4.55301,4.84196 -11.64788,4.14853 -9.75518,-0.95344 -9.53817,-3.62504 -13.53673,-10.35955 z m 21.83042,-9.43564 c 1.15812,-0.0774 2.27273,0.61561 1.76403,1.69537 -0.68114,1.44575 -2.98055,3.49281 -3.84885,2.87478 -0.94148,-0.67012 0.0194,-4.43208 2.08482,-4.57015 z m -13.23946,1.15334 c 2.32345,0.84654 -0.43549,7.11623 -2.52417,5.0095 -1.47369,-1.48643 0.57918,-5.71815 2.52417,-5.0095 z" />
    <path
       id="path20236"
       style="fill:#000000;fill-rule:evenodd;stroke:#000000;stroke-width:0.264583px;stroke-linecap:butt;stroke-linejoin:miter;stroke-opacity:1"
       d="m 139.57572,175.98678 c 2.78667,0.20234 0.8941,4.11692 -1.31805,3.8443 -0.70219,-0.0865 0.21444,-3.92443 1.31805,-3.8443 z m 0.79632,-25.07036 1.81232,-2.85577 c 1.58776,1.59034 0.90378,6.07127 0.345,11.35959 -0.4156,3.93336 0.38734,8.04155 -1.03149,12.28288 -0.46378,0.60204 -1.1643,0.88842 -1.83977,1.20821 1.35709,-3.76815 1.36078,-7.35737 1.16834,-11.03943 -0.18895,-3.61516 1.0571,-8.14756 -0.4544,-10.95548 z m -15.13451,-2.04881 c 3.2024,-0.18869 6.51927,-0.11027 9.94133,0.21359 0.16342,0.61486 -0.24535,1.22972 -1.10675,1.84458 -2.3921,0.0828 -4.8832,0.21515 -7.14533,0.233 0.20067,4.02313 -0.76446,7.81197 -0.17456,11.51023 1.66595,-0.40529 3.97856,-0.34868 6.12343,-0.41189 -0.1216,0.4888 0.41201,0.72709 -2.05945,2.11437 0.0698,-0.17441 -3.98028,0.10224 -3.89923,0.35697 0.48571,1.52646 -0.57417,8.96262 -1.09837,10.462 2.55372,0.22082 5.10743,-0.0317 7.66115,-0.46681 -1.07127,1.9835 -3.23193,3.48768 -9.74806,3.07544 0.85355,-3.8966 1.17189,-7.65802 1.28787,-11.67108 0.0426,-1.47587 -0.71092,-2.83366 -0.70645,-4.3376 0.006,-1.86055 0.97437,-3.25149 0.52874,-5.49336 -0.3912,-1.96805 0.6575,-4.38735 0.39568,-7.42944 z m -6.69876,0.60192 -1.24266,2.95134 c -6.24826,-1.27739 -9.34771,5.08906 -9.34771,6.5745 0,1.46326 1.77977,3.76905 4.2186,4.44297 3.63377,1.00412 8.2787,0.88908 8.2787,5.33068 0,4.02459 -1.53572,7.47884 -8.79611,9.38704 l -0.57664,-2.66355 c 2.80758,0.24984 4.94322,-0.50288 6.78303,-2.35396 3.39582,-3.41663 0.273,-6.51998 -1.72897,-6.6027 -8.15355,-0.33688 -9.63213,-4.06943 -9.04869,-7.52516 0,0 1.53227,-10.69311 11.46045,-9.54116 z m -23.125251,3.80567 c 3.386095,2.79688 3.380833,6.39173 4.310502,9.76659 -1.775795,0.22105 -3.544781,0.45027 -5.572583,0.36891 0.226592,-3.47555 0.251252,-7.05207 1.262081,-10.1355 z m -1.77724,-3.26494 1.565182,1.42789 -0.08238,-0.98854 c 3.571903,1.52431 5.207069,9.03235 6.296449,12.85642 1.35364,4.75169 2.24874,10.37954 4.82458,13.17501 -0.33467,0.48385 -0.51012,1.06324 -1.18076,1.34551 -2.36647,-3.79149 -3.79304,-7.7873 -4.47586,-11.9448 -2.25061,0.72732 -4.544442,1.28176 -7.084511,0.85124 -1.062154,4.40167 -2.477385,8.67495 -2.80085,13.34523 -0.94674,-0.93153 -1.872119,-1.62809 -2.74593,-1.7574 2.807156,-9.19353 4.419107,-18.70578 5.68408,-28.31056 z m -17.244452,0.32951 c 2.105214,0.3641 4.210427,0.40339 6.315641,-0.10983 0.975776,2.84196 -1.95543,3.49363 -5.766456,3.65208 0.607339,3.59414 0.770957,7.13282 0.796322,10.65422 l 5.931212,-1.016 c 1.108975,3.48374 -2.483986,3.73053 -5.546784,4.17383 0.907818,3.50931 1.077194,6.25883 0.46681,9.77551 2.544563,0.23877 5.089127,-0.01 7.63369,-0.19224 l 0.02746,2.91068 c -3.253225,-0.14046 -5.550506,0.25015 -8.210336,0.43935 -0.175235,-0.96071 -0.456829,-1.5877 -0.458832,-2.88213 -0.0022,-1.41086 0.998222,-5.25271 -0.27467,-9.8349 -0.816202,-2.93818 -0.598673,-7.56421 -1.407342,-11.47484 -0.22275,-1.07719 -0.347846,-3.18261 0.493285,-6.09573 z m -17.299371,0.90616 1.427882,0.71394 c -0.34998,10.32687 -0.31995,20.27372 0.05492,29.87574 4.621418,-0.75532 9.058333,-2.01803 14.059172,-1.72994 l -0.686482,2.6361 c -6.667605,0.3288 -10.883373,1.80179 -16.17354,2.77339 -0.378257,-10.10567 0.344459,-16.48249 0.403791,-18.03268 0.05561,-1.45299 1.563057,-7.01334 0.914257,-16.23655 z m -18.068234,4.17382 c 5.409645,-3.12326 11.406608,-1.68722 11.972266,0.96108 0.828831,3.88043 -3.206103,8.77489 -11.175944,11.0661 z m -1.686047,-3.23188 c 9.234934,-3.59144 13.670111,-1.2484 14.724538,3.28363 0.940838,4.04381 0.265871,11.42921 -11.773203,15.2787 0.201863,5.63084 1.545352,11.80534 1.786332,16.89251 l -1.902833,-2.2135 c -2.072166,-11.81533 -1.128121,-20.98268 -2.834834,-33.24134 z" />
  </g>
</svg>
