<?xml version="1.0" encoding="UTF-8" standalone="no"?>
<!-- Created with Inkscape (http://www.inkscape.org/) -->

<svg
   width="279.33533mm"
   height="183.05797mm"
   viewBox="0 0 279.33533 183.05796"
   version="1.1"
   id="svg5"
   inkscape:version="1.1.2 (0a00cf5339, 2022-02-04)"
   sodipodi:docname="bench.svg"
   xmlns:inkscape="http://www.inkscape.org/namespaces/inkscape"
   xmlns:sodipodi="http://sodipodi.sourceforge.net/DTD/sodipodi-0.dtd"
   xmlns="http://www.w3.org/2000/svg"
   xmlns:svg="http://www.w3.org/2000/svg">
  <sodipodi:namedview
     id="namedview7"
     pagecolor="#ffffff"
     bordercolor="#666666"
     borderopacity="1.0"
     inkscape:pageshadow="2"
     inkscape:pageopacity="0.0"
     inkscape:pagecheckerboard="0"
     inkscape:document-units="mm"
     showgrid="false"
     inkscape:zoom="0.70710678"
     inkscape:cx="495.68185"
     inkscape:cy="316.78384"
     inkscape:window-width="1440"
     inkscape:window-height="831"
     inkscape:window-x="0"
     inkscape:window-y="0"
     inkscape:window-maximized="1"
     inkscape:current-layer="layer1"
     inkscape:snap-smooth-nodes="true"
     inkscape:snap-bbox="false"
     inkscape:snap-global="true"
     inkscape:snap-page="true" />
  <defs
     id="defs2" />
  <g
     inkscape:label="Layer 1"
     inkscape:groupmode="layer"
     id="layer1"
     transform="translate(2.4606245,-110.83234)">
    <g
       id="g35135"
       style="display:inline">
      <path
         id="path29205"
         style="fill:#c8beb7;stroke:#502d16;stroke-width:0.264999;stroke-miterlimit:4;stroke-dasharray:none"
         d="m 208.97219,138.21491 -5.22581,-0.23556 m 3.72276,2.93856 -3.69593,-0.33652 m -18.3663,7.0679 17.03811,2.30373 5.02412,-9.03511 1.50304,-2.703 1.17129,-2.10639 m -22.79494,10.63491 4.87839,0.62568 m -2.46327,-1.75244 1.97149,0.29821 m 10.70988,4.03814 3.25496,-3.79805 6.02819,-10.78578 -1.5847,0.73933" />
      <path
         id="path24689"
         style="fill:#c8beb7;stroke:#502d16;stroke-width:0.264999;stroke-miterlimit:4;stroke-dasharray:none"
         d="m 134.21625,194.88472 v 0 l 6.10345,-12.92054 m -7.63269,12.29073 4.78744,-10.8112 m -6.59364,10.08218 4.77269,-10.57536 m -6.75433,9.77553 5.16099,-10.95156 m -6.93482,10.23561 5.03799,-10.72878 m 2.85411,13.91413 2.14051,-0.95195 14.22287,-28.69885 -5.65117,-1.14867 -13.52267,14.63556 -6.09551,12.56934 1.01387,0.40922 1.77383,0.71595 1.98164,0.79983 1.8062,0.72902 2.33043,0.9406 14.16371,-29.18583"
         sodipodi:nodetypes="ccccccccccccccccccccccc" />
      <path
         id="path12824"
         style="display:inline;fill:#c8beb7;stroke:#502d16;stroke-width:0.264999;stroke-miterlimit:4;stroke-dasharray:none"
         d="m 114.01542,231.8201 0.0619,4.93521 -9.3324,-3.86953 0.24348,-4.14405 m 9.08892,8.01358 65.16183,-46.51357 v -3.48728 l -65.22373,45.06564 m 65.22373,-45.06564 -9.06045,-0.86725 -65.1903,42.85452 9.02702,3.07837"
         sodipodi:nodetypes="cccccccccccc" />
      <path
         id="path11736"
         style="fill:#c8beb7;stroke:#502d16;stroke-width:0.264999;stroke-miterlimit:4;stroke-dasharray:none"
         d="m 60.208363,203.75919 105.450287,33.14516 m -3.34122,3.12631 -106.054791,-34.52392 m -4.363646,1.93264 107.195837,35.6066 M 59.850016,200.06205 169.17966,233.60981 M 47.8195,209.24618 l 57.16889,19.49555 9.02703,3.07837 41.83122,14.26515 16.2164,-15.17336 m 0,0 -114.294492,-33.9362 -9.949048,12.27049"
         sodipodi:nodetypes="cccccccccccccccc" />
      <path
         id="path16620"
         style="fill:#c8beb7;stroke:#502d16;stroke-width:0.264999;stroke-miterlimit:4;stroke-dasharray:none"
         d="m 207.37305,192.1572 -62.6325,-12.82576 m 61.76017,10.24618 -65.1938,-13.1433 m 64.30435,10.51313 -63.12404,-12.55185 m 62.25432,9.98007 -61.18131,-11.91148 m 78.17018,11.97494 -87.03213,-15.63692 m 87.63874,15.06933 -81.43455,-15.00055 m 82.85066,13.67554 -85.51898,-15.17236 m 85.51898,15.17236 -3.08403,2.88565 -12.79878,8.19553 -63.34438,-13.11595 -6.29179,-13.13759" />
      <path
         id="path7902"
         style="display:inline;fill:#c8beb7;stroke:#502d16;stroke-width:0.264999;stroke-miterlimit:4;stroke-dasharray:none"
         d="M 12.580162,201.53293 77.56215,176.44547 M 15.04171,202.45175 99.372069,169.26752 M 17.792247,203.47845 96.335245,171.89023 M 20.68215,204.55717 98.543847,172.30434 m -75.041476,33.30554 77.802219,-32.33927 m -75.180188,33.31801 78.471858,-33.21537 m -75.796132,34.21414 74.967902,-32.14358 m -71.781525,36.92104 11.352047,-5.01236 3.407912,-1.50472 13.103555,-5.78572 3.381398,-1.49302 37.743373,-16.66514 -0.29282,-3.12343 -69.281107,29.77771 m 0.585642,3.80668 -21.473591,-7.61336 -0.29282,-4.09951 2.360068,0.88095 2.461548,0.91882 2.750539,1.0267 2.889902,1.07872 2.82022,1.05271 2.622033,0.97874 2.675726,0.99877 2.600733,0.97078 z m 68.695465,-33.58439 -0.61938,-12.61161 -89.842496,34.48313 21.180769,7.90619"
         sodipodi:nodetypes="ccccccccccccccccccccccccccccccccccccc" />
      <path
         id="path12383"
         style="fill:#c8beb7;stroke:#502d16;stroke-width:0.264999;stroke-miterlimit:4;stroke-dasharray:none"
         d="m 112.95874,179.3981 0.11981,5.58727 m 69.14714,-35.85189 -0.0275,1.64493 -69.11964,34.20696 -12.10375,-3.08148 -0.28631,-5.21516 12.27025,2.70937" />
      <path
         id="path8466"
         style="display:inline;fill:#c8beb7;stroke:#502d16;stroke-width:0.264999;stroke-miterlimit:4;stroke-dasharray:none"
         d="m 190.95364,281.35564 2.3626,-2.61913 -47.50219,-111.57132 -2.68044,1.22385 m 43.16112,111.2766 -45.27595,-104.72691 M 180.95395,277.7283 137.85281,177.41395 m 38.45311,98.62831 -42.14467,-97.54962 m 56.79239,102.863 -4.65891,-1.69 -5.34078,-1.93734 -4.64803,-1.68604 -5.26415,-1.90955 -41.00755,-95.33724 13.09939,-10.40643 z" />
      <path
         id="path23775"
         style="fill:#c8beb7;stroke:#502d16;stroke-width:0.264999;stroke-miterlimit:4;stroke-dasharray:none"
         d="m 73.04411,235.38264 2.437865,-1.25485 19.534261,-63.66105 -1.133811,-5.64474 M 70.087841,234.16981 89.321033,167.11565 M 67.299,233.02567 85.873647,166.37005 m -21.302848,65.53636 17.775679,-66.19117 m -20.722415,64.98225 2.946738,1.20892 2.728201,1.11926 2.788841,1.14414 2.956267,1.21283 20.838318,-70.56064 -14.662154,-1.97835 z" />
      <path
         id="path9139"
         style="display:inline;fill:#c8beb7;stroke:#502d16;stroke-width:0.264999;stroke-miterlimit:4;stroke-dasharray:none"
         d="m 141.13883,175.46084 -50.693183,-8.8939 m 48.454203,13.05581 -55.964856,-10.46141 m 53.318556,15.38045 -15.36683,-3.39312 -7.92798,-1.75057 -12.27025,-2.70937 -19.305219,-4.26275 -2.635393,-6.83251 67.416562,0.52558 -5.02561,9.34179 -2.23898,4.16191 z m 0,0 3.42546,-1.4546 9.5038,-18.53766 -5.80678,0.99395"
         sodipodi:nodetypes="ccccccccccccccccc" />
      <path
         id="path6021"
         style="fill:#c8beb7;stroke:#502d16;stroke-width:0.264999;stroke-miterlimit:4;stroke-dasharray:none"
         d="m 134.64678,176.56302 -0.19521,-5.07558 m -6.49088,3.12344 6.68609,1.95214 11.37125,-5.4172 0.14641,-5.02677" />
      <path
         id="path5739"
         style="fill:#c8beb7;stroke:#502d16;stroke-width:0.264999;stroke-miterlimit:4;stroke-dasharray:none"
         d="m 171.26011,123.60757 c -38.305,12.0524 -79.701961,23.22139 -120.442061,34.57806 M 166.33149,123.37637 C 127.11435,135.15096 86.310847,146.291 43.414314,156.59383 M 40.594655,155.9876 C 82.235749,145.45482 124.23582,135.20923 164.12226,123.27273 l 2.20923,0.10364 2.21911,0.1041 2.70951,0.1271 3.57598,0.16775 c -38.54866,13.05773 -79.812972,23.85241 -120.437692,35.18009 m -13.45865,2.27762 -0.345093,-5.24543 2.819661,0.60623 3.864481,0.83086 3.539253,0.76094 3.580351,0.76978 0.138038,5.45248 z m 133.896192,-37.45771 0.005,3.28582 -120.304503,37.34675 -0.138039,-5.45248 M 168.5506,123.48047 C 130.21011,135.5765 88.415276,146.37715 47.278794,157.42469 l -3.86448,-0.83086" />
      <path
         id="path4149"
         style="fill:#c8beb7;stroke:#502d16;stroke-width:0.264999;stroke-miterlimit:4;stroke-dasharray:none"
         d="M 185.34879,125.09952 69.210996,162.0858 m -3.642355,-0.70229 117.107509,-36.53103 m -2.98088,-0.27552 -117.867602,36.08525 m -3.44842,-0.66489 119.070812,-35.62789 2.24521,0.20753 2.98088,0.27552 2.67264,0.24704 3.83916,0.35485 -115.874799,37.42237 m -14.397061,2.87941 -0.53684,-5.75883 3.448419,0.66489 3.740974,0.7213 3.642353,0.70229 4.102158,0.79094 0.390432,5.56361 z m 130.27182,-40.30178 0.0849,3.8848 -115.569227,39.10118 -0.390432,-5.56361" />
      <path
         id="path3229"
         style="display:inline;fill:#c8beb7;stroke:#502d16;stroke-width:0.264999;stroke-miterlimit:4;stroke-dasharray:none"
         d="M 90.451065,166.61785 200.70242,126.30031 m -2.9286,-0.0945 -111.666173,39.45861 M 81.980232,164.7584 194.575,126.10262 m -116.400535,37.82037 113.817205,-37.90367 2.58333,0.0833 3.19882,0.10319 2.9286,0.0945 4.12674,0.13312 L 95.153074,167.65 m -0.138034,6.07365 -16.426457,-3.72701 -0.414115,-6.07365 3.805766,0.83541 4.127414,0.90602 4.34342,0.95343 4.702008,1.03215 z m 109.81415,-47.29022 -0.0956,3.95707 -109.718552,43.33315 0.138036,-6.07365" />
      <path
         id="path1066"
         style="fill:#c8beb7;stroke:#502d16;stroke-width:0.264583px;stroke-linecap:butt;stroke-linejoin:miter;stroke-opacity:1"
         d="m 114.41538,170.8521 103.31809,-43.20995 m -3.07385,-0.39655 -104.79369,42.63162 m -4.79275,-1.02702 106.51259,-42.00116 m -92.20826,51.60606 29.8053,-13.90557 33.04288,-15.41605 c 1.06041,-0.49473 2.12082,-0.98946 3.18122,-1.48419 l 1.94162,-0.90586 2.41512,-1.12676 1.61572,-0.75381 c 0.29699,-0.13856 0.59399,-0.27713 0.89099,-0.41569 0.79262,-0.36979 1.58523,-0.73959 2.37785,-1.10938 l 2.50683,-1.16955 2.4736,-1.15405 2.42009,-1.12908 0.60805,-0.28369 2.09353,-0.97673 5.39317,-2.51617 1.58469,-0.73933 9.35858,-4.36622 v -2.92822 l -101.70924,43.84067 m 0,6.53968 -19.13102,-3.90429 v -6.7349 l 4.82669,1.03429 4.79275,1.02702 4.54945,0.97488 4.96213,1.06332 z m 101.70924,-50.38035 -3.35329,-0.4326 -3.07384,-0.39655 -3.07384,-0.39656 -3.35879,-0.43331 -107.9805,41.40018 19.13102,4.09951"
         sodipodi:nodetypes="cccccccccsccccccccsscccccccccccccccccccc" />
      <path
         id="path7137"
         style="display:inline;fill:#c8beb7;stroke:#502d16;stroke-width:0.264999;stroke-miterlimit:4;stroke-dasharray:none"
         d="M 260.40801,176.10103 190.9269,268.295 m -5.69668,-2.25272 71.6519,-90.52679 m -3.54841,-0.58928 -74.45334,88.60505 m -6.60171,-2.61062 76.68972,-86.71937 m -4.10784,-0.68218 -79.55419,84.64439 m -5.28024,-2.08805 81.80103,-83.06009 m -3.39153,-0.56322 -83.55788,81.58741 m 41.36172,22.2105 9.13489,-12.94416 2.16651,-3.06995 7.84517,-11.11662 41.65552,-59.02595 4.68532,-6.63911 2.7044,-3.83214 -0.27609,-2.89879 -67.42769,93.8655 m -47.14429,-12.88415 v -5.75883 l 5.29454,2.0937 5.14838,2.0359 5.28024,2.08805 6.97231,2.75716 6.60171,2.61062 6.34985,2.51102 5.69668,2.25272 5.80058,2.29381 -0.48803,5.66122 z m 0,-5.75883 6.26345,-5.86058 3.24819,-3.03927 3.2226,-3.01532 3.34122,-3.12631 3.52101,-3.29454 2.88338,-2.69792 36.77835,-34.41275 1.19325,-1.11651 1.96847,-1.84185 1.99523,-1.8669 2.1023,-1.96708 2.13642,-1.999 1.00392,-0.93935 1.42813,-1.33627 c 0.35377,-0.33102 0.70754,-0.66203 1.06131,-0.99305 0.2022,-0.1892 0.40441,-0.3784 0.60661,-0.56759 0.47203,-0.44167 0.94407,-0.88334 1.4161,-1.32501 l 11.37529,-10.64363 3.30719,0.54922 3.39154,0.56322 3.0334,0.50375 4.10783,0.68218 4.36533,0.72494 3.54842,0.58928 3.52587,0.58554 3.74717,0.62228 -67.42769,93.8655"
         sodipodi:nodetypes="ccccccccccccccccccccccccccssccccccccccccccccccccccccccccccccccc" />
      <path
         id="path9625"
         style="fill:#c8beb7;stroke:#502d16;stroke-width:0.264999;stroke-miterlimit:4;stroke-dasharray:none"
         d="m 47.8195,209.24618 -1.073037,-3.39841 m -3.407912,1.50472 4.480949,1.89369 4.079495,-1.8068 4.363646,-1.93264 3.945722,-1.74755 -0.358347,-3.69714"
         sodipodi:nodetypes="cccccccc" />
      <path
         id="path13170"
         style="fill:#c8beb7;stroke:#502d16;stroke-width:0.264999;stroke-miterlimit:4;stroke-dasharray:none"
         d="m 215.38601,249.1193 0.0744,4.31254 -7.70112,10.99869 -0.21841,-4.19461 m 0.21841,4.19461 -2.38496,-1.12466 2.16655,-3.06995" />
      <path
         id="path14537"
         style="fill:#c8beb7;stroke:#502d16;stroke-width:0.264999;stroke-miterlimit:4;stroke-dasharray:none"
         d="m 194.64821,143.33779 17.35489,50.20299 m 1.99525,-1.8669 -16.84331,-49.50564 m 2.4736,-1.15405 16.47201,48.69261 m -13.44387,-50.10538 16.58421,47.16703 m 1.42811,-1.33627 -0.43298,-1.27313 -1.04135,-3.06199 -12.98161,-38.171 -1.46285,-4.30137 -13.37094,6.23817 m 0,0 0.35577,1.05202 0.49178,1.45423 0.35746,1.05703 12.15717,35.94953 0.86971,2.57178 0.88945,2.63017 0.87234,2.57958 0.49729,1.47051 0.97104,2.87143 11.82772,-11.06696"
         sodipodi:nodetypes="ccccccccccccccccccccccccc" />
      <path
         style="fill:#c8beb7;stroke:#502d16;stroke-width:0.264999;stroke-miterlimit:4;stroke-dasharray:none"
         d="m 257.04154,190.09335 0.076,2.02891 4.77491,-6.59901 -0.16556,-2.06901"
         id="path27268"
         sodipodi:nodetypes="cccc" />
    </g>
  </g>
</svg>
