<?xml version="1.0" encoding="UTF-8" standalone="no"?>
<!-- Created with Inkscape (http://www.inkscape.org/) -->

<svg
   width="200"
   height="200"
   viewBox="0 0 52.916665 52.916668"
   version="1.1"
   id="svg5"
   inkscape:version="1.1.2 (0a00cf5339, 2022-02-04)"
   sodipodi:docname="svg_10.svg"
   xmlns:inkscape="http://www.inkscape.org/namespaces/inkscape"
   xmlns:sodipodi="http://sodipodi.sourceforge.net/DTD/sodipodi-0.dtd"
   xmlns="http://www.w3.org/2000/svg"
   xmlns:svg="http://www.w3.org/2000/svg">
  <sodipodi:namedview
     id="namedview7"
     pagecolor="#ffffff"
     bordercolor="#666666"
     borderopacity="1.0"
     inkscape:pageshadow="2"
     inkscape:pageopacity="0.0"
     inkscape:pagecheckerboard="0"
     inkscape:document-units="px"
     showgrid="false"
     units="px"
     width="200px"
     inkscape:zoom="2.2912738"
     inkscape:cx="104.74523"
     inkscape:cy="113.474"
     inkscape:window-width="1440"
     inkscape:window-height="831"
     inkscape:window-x="0"
     inkscape:window-y="0"
     inkscape:window-maximized="1"
     inkscape:current-layer="layer1"
     inkscape:snap-global="false" />
  <defs
     id="defs2">
    <inkscape:path-effect
       effect="mirror_symmetry"
       start_point="13.405257,32.902239"
       end_point="13.405257,14.861248"
       center_point="13.405257,23.881743"
       id="path-effect3420"
       is_visible="true"
       lpeversion="1.1"
       mode="free"
       discard_orig_path="false"
       fuse_paths="false"
       oposite_fuse="false"
       split_items="true"
       split_open="false" />
  </defs>
  <g
     inkscape:label="Layer 1"
     inkscape:groupmode="layer"
     id="layer1">
    <path
       style="fill:#000000;fill-opacity:1;fill-rule:nonzero;stroke:none;stroke-width:0.290209;stroke-linejoin:round;stroke-opacity:1"
       d="m 13.244109,39.393863 c 5.947319,3.771472 10.734184,-0.870338 10.734184,-0.870338 3.046186,2.46596 6.382488,0 6.382488,0 2.611017,1.450567 8.993503,-0.870341 8.993503,-0.870341 0,1.885738 0.290115,3.771471 0.290115,3.771471 2.320903,0.870344 5.947314,-0.43517 5.947314,-0.43517 C 47.665097,29.183049 44.447272,9.2595034 43.705981,7.1913152 42.956714,5.1008756 30.67037,3.8550474 30.070668,4.8704116 c -1.065969,1.8048056 0.0781,3.2786488 -0.145057,4.7868648 -3.276169,-0.496127 -3.063503,-1.36661 -5.222036,-3e-6 0,0 -0.128015,-4.346855 -1.740679,-5.2220334 C 21.160927,3.4573272 9.974004,7.4380415 9.4726373,9.0770474 9.0912619,10.323793 8.5060788,32.382795 8.0220727,44.035669 c 0,0 3.7714683,2.756074 5.8022613,0.580229 0,-0.435167 -0.580225,-5.222035 -0.580225,-5.222035 z"
       id="path10795"
       sodipodi:nodetypes="ccccccssccssccc" />
  </g>
</svg>
