<?xml version="1.0" standalone="no"?>
<svg xmlns="http://www.w3.org/2000/svg" height="1920pt" preserveAspectRatio="xMidYMid meet" viewBox="0 0 1483 1920" width="1483pt">
  <path d="m5540 18630c-384-98-540-150-771-256-681-312-1109-815-1274-1499-85-351-106-734-55-1031 85-496 382-1237 755-1884 127-219 186-335 280-545 212-472 372-958 474-1440 25-119 39-200 87-492l5-33h-263c-1289 0-2267-190-3066-594-753-382-1192-908-1288-1546-18-123-20-412-4-545 52-427 215-820 491-1185 48-63 114-145 148-182l60-68-41-67c-112-184-203-425-234-620-20-129-15-349 11-482 78-402 315-696 713-889 65-32 167-73 226-92l108-35-7-50c-29-236-23-503 16-683 91-420 345-708 766-868 143-54 411-111 598-126 17-2 29-7 28-13-53-330-1-665 143-922 175-313 532-535 1019-632 265-53 388-63 880-68l450-5 237 121 237 122 223-55c331-82 573-126 883-162 206-24 632-24 945 0l235 18 200 98c927 456 1827 1161 2634 2063l114 127h989 989l19 46c11 25 43 107 71 182 184 489 309 923 403 1392 186 929 203 1859 50 2733-105 597-283 1179-537 1754l-71 162-926 4c-787 3-936 6-1000 20-308 63-414 125-638 370-99 109-319 377-444 542-41 55-272 361-513 680-771 1020-799 1055-1194 1475-173 184-730 777-1238 1317l-923 982-46 203c-25 112-60 268-78 348s-147 650-286 1268c-206 913-256 1122-269 1121-9 0-153-36-321-79zm-105-802c3-13 122-565 264-1227l259-1203 50-52c27-28 537-571 1133-1206s1174-1252 1285-1370c242-258 709-839 1136-1415 98-132 232-312 297-400 248-334 448-573 651-775 289-289 427-361 815-424 305-50 818-85 1270-86 127 0 271-3 321-7l92-6 61-186c266-814 383-1533 383-2356 0-442-40-843-127-1280-59-293-164-689-253-945l-29-85-914-3-914-3-70-91c-360-472-875-999-1383-1415-338-278-834-626-1234-867l-177-106-363-3c-307-2-382 1-488 16-123 18-320 54-325 59-3 3 459 210 1260 566 193 86 352 158 355 159 6 5-111 238-182 363-82 143-189 301-300 445-109 141-373 410-506 515-51 40-91 74-90 75 2 1 184 86 406 190 221 104 402 193 402 198 0 14-127 226-217 362-256 386-543 695-832 894l-74 50 28 11c15 6 115 48 223 94 109 46 214 91 234 100l38 15-35 78c-55 119-168 321-254 451-244 368-566 671-908 853-46 24-83 46-83 49s97 50 216 105c118 55 218 103 220 108 7 9-116 255-192 385-459 783-1110 1225-1942 1318-156 17-457 19-592 4-334-37-718-139-1123-299l-177-70-532-7c-293-4-534-7-535-8s138-151 310-334l311-333 76 6c41 3 181 10 310 15l235 11 225 88c437 173 701 256 980 308 148 28 489 25 630-6 348-74 621-228 868-485 83-87 227-268 234-294 3-12-26-26-872-407-278-125-548-247-600-270-52-24-282-128-510-230l-415-187-465 6c-256 4-510 12-565 17-428 43-797 213-1113 514-339 322-514 694-552 1169-46 573 223 993 831 1297 586 293 1595 478 2754 504 127 3 255 8 285 10s230 4 443 5h389l-7 223c-13 484-35 742-85 1020-110 608-323 1222-643 1847-109 213-141 270-377 675-277 475-361 646-445 905-171 529-150 1059 57 1475 191 382 536 670 1033 864 120 47 123 47 130 19zm577-10349c349-116 722-395 958-716l30-41-408-180c-224-99-587-260-807-357s-587-260-816-361l-416-184h-801c-452 0-867 5-954 10-696 48-1089 228-1221 560-83 209-53 424 89 647l33 52 86-40c194-91 455-160 746-198 240-32 448-41 935-41h451l264 119c145 65 417 187 604 271s423 190 525 236c102 45 271 121 375 168 105 47 200 86 212 86 11 0 63-14 115-31zm789-1645c267-146 536-369 698-583l60-78-92-41c-51-22-389-173-752-335s-888-396-1168-521l-507-226h-629c-345 0-686 5-757 10-327 27-585 86-769 177-304 152-445 407-379 687l18 78 1073-8 1072-7 538 239c500 221 1487 661 1489 663 1 1 48-24 105-55zm381-1716c68-56 170-150 228-209 100-101 152-163 344-414l84-109-36-17c-32-14-1400-631-1949-878l-193-87-317 3c-348 2-522 17-691 58-461 112-688 363-709 783l-6 122h609 609l560 250c308 137 736 328 950 424 215 96 391 175 392 176 1 0 58-46 125-102z" transform="matrix(.1 0 0 -.1 0 1920)" fill="#000" stroke="none" stroke-width="2" vector-effect="non-scaling-stroke"/>
</svg>
