<?xml version="1.0" encoding="UTF-8" standalone="no"?>
<!-- Created with Inkscape (http://www.inkscape.org/) -->

<svg
   width="186.04187mm"
   height="140.07858mm"
   viewBox="0 0 186.04187 140.07858"
   version="1.1"
   id="svg5"
   inkscape:version="1.1.2 (0a00cf5339, 2022-02-04)"
   sodipodi:docname="box_contents.svg"
   xmlns:inkscape="http://www.inkscape.org/namespaces/inkscape"
   xmlns:sodipodi="http://sodipodi.sourceforge.net/DTD/sodipodi-0.dtd"
   xmlns:xlink="http://www.w3.org/1999/xlink"
   xmlns="http://www.w3.org/2000/svg"
   xmlns:svg="http://www.w3.org/2000/svg">
  <sodipodi:namedview
     id="namedview7"
     pagecolor="#ffffff"
     bordercolor="#666666"
     borderopacity="1.0"
     inkscape:pageshadow="2"
     inkscape:pageopacity="0.0"
     inkscape:pagecheckerboard="0"
     inkscape:document-units="mm"
     showgrid="false"
     inkscape:zoom="1.2204686"
     inkscape:cx="385.50766"
     inkscape:cy="272.84602"
     inkscape:window-width="1440"
     inkscape:window-height="831"
     inkscape:window-x="0"
     inkscape:window-y="0"
     inkscape:window-maximized="1"
     inkscape:current-layer="layer1" />
  <defs
     id="defs2" />
  <g
     inkscape:label="Layer 1"
     inkscape:groupmode="layer"
     id="layer1"
     transform="translate(-7.4286022,-9.8214827)">
    <image
       width="186.04187"
       height="140.07858"
       preserveAspectRatio="none"
       xlink:href="box_contents.webp"
       id="image832"
       x="7.4286022"
       y="9.8214827" />
    <g
       id="g8976"
       inkscape:label="overlays">
      <path
         style="fill:#ff0000;fill-opacity:0.5;stroke-width:1.265;stroke-linejoin:round"
         d="M 59.127037,128.6183 58.976401,96.444356 83.866409,95.067911 84.479316,127.40683 Z"
         id="path3976"
         sodipodi:nodetypes="ccccc"
         inkscape:label="rulesheet_taster" />
      <path
         style="fill:#ff0000;fill-opacity:0.5;stroke-width:1.265;stroke-linejoin:round"
         d="m 54.057697,124.41325 4.35193,-22.54752 -8.264268,-1.09897 -0.08792,-2.593572 -16.400041,2.781812 2.333201,22.53737 2.945244,-0.57146 z"
         id="path3074"
         inkscape:label="rulesheet_rules" />
      <path
         id="path3743"
         style="fill:#ff0000;fill-opacity:0.5;stroke-width:1.265;stroke-linejoin:round"
         d="m 82.805184,94.336648 1.499785,0.33415 0.481795,-2.121458 -1.414303,-0.33415 -0.155419,0.637214 c 0,0 -0.106978,0.01075 -0.155419,-0.0078 -0.115226,-0.04413 -0.168599,-0.200245 -0.287523,-0.233127 -0.03531,-0.0098 -0.07388,0.02662 -0.108794,0.01553 -0.06112,-0.01941 -0.07584,-0.128534 -0.139874,-0.132103 -0.26225,-0.01462 -0.54054,0.226871 -0.629444,0.474025 -0.08294,0.230563 -0.01519,0.555592 0.17096,0.714922 0.04935,0.04224 0.134994,-0.01105 0.194273,0.01553 0.07523,0.03373 0.09806,0.153953 0.178729,0.170961 0.186012,0.03922 0.536194,-0.194273 0.536194,-0.194273 z m -5.932266,-1.161809 2.417739,-1.384705 0.351671,0.37365 1.516581,-1.142931 0.923137,0.04396 0.10088,-0.139205 3.648585,0.373652 4.768488,2.261492 0.04678,-0.14977 2.76131,-0.03912 4.522068,-8.383014 -2.969681,-1.585663 0.186503,-0.59059 -3.061738,-1.041299 0.03108,-1.010219 -1.445387,-0.06217 v -0.341921 l -2.092566,-0.04782 -1.585264,-0.699381 -0.01553,-1.087927 -1.592041,0.03706 -0.373001,-0.792633 -0.310838,0.139877 -0.426402,-0.803391 -0.279755,0.155416 -0.202041,-0.295294 -0.994677,0.497338 -0.155419,-0.139875 -1.787308,1.289968 -4.068366,0.03308 -0.09006,2.313736 -2.583127,0.688621 0.01553,0.17096 -0.233127,0.06217 0.09325,0.481798 -2.160313,1.243343 z"
         inkscape:label="rulesheet_prompts" />
      <path
         style="fill:#ff0000;fill-opacity:0.5;stroke-width:1.265;stroke-linejoin:round"
         d="M 44.644862,60.955799 34.622239,34.404638 48.60116,29.744998 v -1.846273 l 3.604628,0.439588 1.582521,-0.879177 0.791257,1.055013 15.209771,0.175836 -0.791257,27.782008 H 57.480855 Z"
         id="path890"
         inkscape:label="rulesheet_nightsheet" />
      <path
         style="fill:#ff0000;fill-opacity:0.5;stroke-width:1.265;stroke-linejoin:round"
         d="m 34.685924,64.063918 20.183324,-5.670696 1.055013,2.967225 1.116441,-2.942992 19.519995,5.391163 -8.951267,28.848857 -12.431908,-3.301423 -12.908129,3.865562 z"
         id="path2959"
         inkscape:label="rulesheet_intro" />
      <path
         style="fill:#ff0000;fill-opacity:0.5;stroke-width:1.265;stroke-linejoin:round"
         d="m 91.347225,127.94687 5.714653,-1.93419 0.967097,1.40669 3.340865,-0.17584 0.61543,-1.67044 8.8797,4.65964 13.53933,-28.7491 -3.4288,-1.14293 0.42945,-1.145752 -1.95617,-0.549484 0.37365,-1.120952 -1.47262,-0.395629 0.084,-0.489183 -3.67057,-0.989076 0.13188,-1.142931 -3.60463,-0.461568 -0.071,-1.008801 -0.81324,0.08792 -0.0439,-0.351671 -1.95617,0.08792 -0.022,-0.769281 -2.04409,0.131879 -0.21979,-0.593448 -3.23098,0.549487 -0.52243,-1.095589 -3.143064,0.923136 -0.703342,-0.197815 -0.197813,0.747299 -4.110156,-0.37365 -0.241774,1.208871 -3.323966,0.0186 -0.06594,0.703342 -0.37365,-0.08792 0.04396,0.153855 h -0.659382 l 0.02199,0.307713 -1.758354,-0.06594 -0.02199,0.197815 -0.505526,-0.06594 0.06594,0.483548 -1.516584,0.153855 0.223176,1.104045 -2.181187,0.543968 0.101022,5.822337 z"
         id="path2444"
         sodipodi:nodetypes="ccccccccccccccccccccccccccccccccccccccccccccc"
         inkscape:label="rulesheet_characters" />
      <path
         id="path1582"
         style="fill:#ff0000;fill-opacity:0.5;stroke-width:1.265;stroke-linejoin:round"
         d="m 156.85938,32.337891 c -9.42644,0.119267 -18.82363,1.025367 -28.16394,2.255418 -6.31828,0.59419 -12.67885,0.702218 -19.03528,0.797316 -0.62796,0.377058 -0.53343,1.020853 -0.46947,1.653363 0.0992,2.019191 0.32273,3.478877 0.42192,5.498068 0.38433,0.615417 0.6547,0.632052 1.28034,0.573826 11.63561,-0.557741 23.51664,-0.751753 35.15205,-1.309076 7.00074,-0.208206 14.00679,-0.110512 21.00773,0.04085 0.64047,-0.340087 0.5782,-0.989486 0.56492,-1.617318 0.0506,-2.329384 0.10125,-4.658767 0.15188,-6.98815 -0.31465,-0.639834 -0.96752,-0.59686 -1.58254,-0.630319 -3.10157,-0.256342 -6.21688,-0.295355 -9.32761,-0.273978 z"
         sodipodi:nodetypes="cccccccccccc"
         inkscape:label="tokens_shrouds" />
      <path
         id="path4260"
         style="fill:#ff0000;fill-opacity:0.5;stroke-width:1.265;stroke-linejoin:round"
         d="m 79.064453,70.607422 c -1.072948,-0.07333 -2.094792,0.808579 -1.962891,1.923828 0.09355,1.074919 -0.499568,2.413681 0.382476,3.277141 1.210492,0.546817 2.60359,0.549085 3.903237,0.775332 2.041941,0.288155 4.095385,0.499417 6.160279,0.388914 2.232285,-0.09022 4.501461,-0.01611 6.697705,-0.461291 1.109335,-0.603837 0.955258,-2.087585 0.993022,-3.165643 -0.01701,-1.083688 -0.861217,-2.199297 -2.029984,-2.084244 -2.974231,0.186793 -5.898487,-0.201657 -8.867221,-0.366403 -1.7814,-0.104183 -3.504501,-0.242403 -5.276623,-0.287634 z"
         inkscape:label="tokens_votes" />
      <path
         id="path3189"
         style="fill:#ff0000;fill-opacity:0.5;stroke-width:1.265;stroke-linejoin:round"
         d="m 103.71289,69.212891 c -1.59905,0.06341 -2.81007,1.666478 -2.62109,3.21875 -0.16726,1.433961 -0.83003,3.057062 0.12695,4.367187 0.86239,1.200635 2.57712,1.232433 3.81152,0.644358 1.43407,-0.372204 3.34461,-0.372904 4.09082,-1.906077 0.63553,-1.340402 -0.10486,-2.860925 -1.18051,-3.724919 -0.87201,-0.722831 -1.72229,-1.478562 -2.6105,-2.175471 -0.48259,-0.295671 -1.04784,-0.469265 -1.61719,-0.423828 z"
         inkscape:label="tokens_spare" />
      <path
         id="path4978"
         style="fill:#ff0000;fill-opacity:0.5;stroke-width:1.265;stroke-linejoin:round"
         d="m 125.39062,80.099609 c -1.52257,-0.04014 -3.36611,0.615828 -3.73343,2.272944 -0.6896,2.25984 -0.0556,4.634105 -0.3043,6.941484 0.018,2.089954 -0.22345,4.31391 0.64516,6.271901 0.89745,1.439777 2.75744,1.47473 4.26306,1.493618 1.42488,0.253992 3.12687,0.03768 3.98889,-1.267056 1.13331,-1.558041 0.69989,-3.65471 1.49609,-5.326172 0.78588,-0.196345 1.69295,-0.01068 2.41303,0.04254 1.98288,0.21943 4.04064,0.817514 6.08304,0.61196 2.00142,-0.601943 2.9181,-2.726391 3.55498,-4.535008 0.50287,-1.439382 0.42722,-3.49038 -1.10183,-4.265979 -2.21846,-1.033879 -4.72208,-1.106741 -7.11044,-1.429333 -3.18755,-0.286594 -6.37435,-0.623154 -9.56842,-0.816073 -0.20861,-0.0067 -0.41721,0.0034 -0.62583,0.0052 z"
         inkscape:label="tokens_reminder" />
      <path
         id="path5811"
         style="fill:#ff0000;fill-opacity:0.5;stroke-width:1.265;stroke-linejoin:round"
         d="m 99.248047,56.982422 c -4.825088,0.19937 -9.653318,0.30455 -14.482246,0.300336 -1.713318,0.06503 -3.537748,0.04939 -5.105645,0.810992 -1.456906,1.225304 -1.424266,3.303178 -1.783831,5.01006 -0.227109,1.541038 -0.741729,3.183125 -0.227887,4.710643 0.697418,1.324901 2.380323,1.282493 3.661537,1.507597 1.894063,0.18214 3.777553,0.481056 5.67087,0.643046 1.181791,0.09767 2.619747,-0.440238 2.823377,-1.753795 0.194083,-0.690455 0.289886,-1.781371 1.241973,-1.732115 3.261673,-0.333905 6.546903,-0.07053 9.817085,-0.258483 1.20951,-0.08602 2.89294,-0.112082 3.52344,-1.431641 0.78739,-1.413334 0.46055,-3.080299 0.72028,-4.613713 0.13686,-1.083053 -0.1538,-2.457561 -1.34333,-2.812068 -1.43491,-0.493049 -3.02272,-0.3195 -4.515623,-0.380859 z"
         inkscape:label="tokens_life" />
      <path
         id="path6569"
         style="fill:#ff0000;fill-opacity:0.5;stroke-width:1.265;stroke-linejoin:round"
         d="m 147.97656,42.048828 c -8.03899,0.226198 -16.06559,0.886685 -24.11245,0.802479 -4.28966,0.07032 -8.62447,-0.08127 -12.86411,0.672131 -1.13584,0.254826 -2.02739,1.178834 -2.22461,2.326171 -0.88847,3.30121 -0.47627,6.761389 -0.8429,10.129584 -0.30139,4.186152 -1.06036,8.373969 -0.75263,12.579685 0.14274,1.402643 1.26764,2.400146 2.48935,2.937312 0.98724,0.543906 2.2123,0.780453 2.99485,1.624904 0.76892,1.628133 0.44712,3.70227 1.74414,5.097656 1.29845,1.394272 3.36477,1.237648 5.10492,1.39266 4.19832,0.107297 8.388,-0.344871 12.58765,-0.276149 3.14025,-0.03827 6.33881,0.0394 9.40704,-0.720027 1.37698,-0.379714 2.32668,-1.624227 2.54688,-3.003906 0.30214,-1.627206 -0.11134,-3.449401 -1.2237,-4.688052 -1.47818,-1.227182 -3.54008,-1.032315 -5.20404,-1.837338 -0.4481,-1.701609 -0.21516,-3.497382 -0.18414,-5.236798 0.0754,-1.566119 0.24042,-3.138227 0.66461,-4.651874 3.50959,-0.436213 7.20397,0.158018 10.58789,-1.103516 2.11758,-1.040737 2.82038,-3.507363 3.25391,-5.642578 0.0816,-0.643538 0.57772,-1.062219 1.20201,-1.131319 1.62195,-0.453418 3.65236,-0.660321 4.53048,-2.323557 1.102,-2.032706 0.33465,-4.715851 -1.34968,-6.183796 -2.00515,-0.941317 -4.29126,-0.689023 -6.44179,-0.780205 -0.63793,-0.0042 -1.27579,0.01158 -1.91368,0.01653 z"
         inkscape:label="tokens_character" />
      <path
         id="path1410"
         style="fill:#ff0000;fill-opacity:0.5;stroke-width:1.265;stroke-linejoin:round"
         d="m 71.185547,34.908203 -0.703125,14.15625 c 0.298536,0.648103 0.952508,0.619311 1.566545,0.666575 l 6.378767,0.675222 c 0.626605,-0.364902 0.625963,-0.944955 0.462794,-1.580756 -0.162177,-1.659067 -0.627906,-4.439729 -0.698778,-6.097202 l 1.386375,-6.788839 C 79.31291,35.258457 78.662184,35.242294 78.029705,35.194664 L 71.78125,34.408203 Z"
         sodipodi:nodetypes="cccccccccc"
         inkscape:label="clips" />
      <path
         id="path1270"
         style="fill:#ff0000;fill-opacity:0.5;stroke-width:1.265;stroke-linejoin:round"
         d="m 90.777344,30.548721 c -6.308966,0.283796 -11.950489,5.740605 -12.313666,12.069847 -0.572763,6.122176 3.747098,12.354204 9.769136,13.772722 5.458879,1.457798 11.791936,-0.986733 14.598216,-5.952792 2.81652,-4.654922 2.44137,-11.115742 -1.22807,-15.212717 -2.632863,-3.122836 -6.735228,-4.942944 -10.825616,-4.67706 z"
         inkscape:label="townsquare" />
      <path
         id="path2329"
         style="fill:#ff0000;fill-opacity:0.5;stroke-width:1.265;stroke-linejoin:round"
         d="m 129.83203,98.882812 c -1.51225,0.281333 -2.23396,2.013268 -1.91924,3.406978 0.18352,7.26097 0.29345,14.52752 0.54619,21.78443 0.36385,1.52785 2.14921,1.97103 3.51758,1.84961 10.49764,0.43762 20.99618,0.94056 31.49414,1.3164 1.66903,-0.28377 2.26315,-2.2993 1.79985,-3.742 -0.82585,-7.4918 -1.56318,-14.9976 -2.49711,-22.47479 -0.49477,-1.435908 -2.22103,-1.689608 -3.53711,-1.583987 -9.8012,-0.186137 -19.60317,-0.423007 -29.4043,-0.556641 z"
         inkscape:label="bag" />
      <path
         id="path2559"
         style="fill:#ff0000;fill-opacity:0.5;stroke-width:1.265;stroke-linejoin:round"
         d="m 152.35547,56.15625 c -0.9233,0.185272 -1.60765,0.94539 -2.41893,1.390383 -0.71053,0.364586 -1.16039,1.086623 -1.05765,1.898994 0.27408,6.683152 0.45007,13.376692 0.67895,20.064158 0.0547,2.096496 0.11619,4.192573 0.32693,6.279277 0.002,1.021243 -0.41626,2.003417 -0.30469,3.041016 0.11022,2.034078 0.022,4.083506 0.14415,6.110742 0.31256,1.027491 1.54115,1.017899 2.41745,0.985357 2.02343,0.03365 4.05898,0.154528 6.07484,0.133774 1.02397,-0.288521 1.07124,-1.528212 0.93099,-2.396479 -0.14924,-3.783442 -0.33951,-7.575128 -0.57915,-11.347066 0.0198,-0.713118 0.88472,-0.517534 1.33368,-0.729929 0.91017,-0.09687 1.72351,-0.914569 1.48475,-1.871254 -0.30057,-7.456974 -0.54532,-14.916243 -0.71687,-22.377332 -0.32189,-1.204581 -1.84683,-1.184575 -2.82587,-0.956004 -1.24229,0.200203 -2.55544,0.463159 -3.78936,0.145457 -0.47193,-0.441637 -1.10534,-0.376447 -1.69922,-0.371094 z"
         inkscape:label="tokenbox" />
    </g>
  </g>
</svg>
